#!OML:ASF F:\VICON\USERDATA\INSTALL\rory3\rory3.ASF
:FULLY-SPECIFIED
:DEGREES
237
root 3.08473 16.7349 -0.108268 15.2643 5.16787 10.9346
lowerback -7.03516 1.60438 -0.278758
upperback -1.86304 2.3817 -7.57127
thorax 2.33296 1.21941 -7.56936
lowerneck -2.29755 14.2733 5.26283
upperneck 47.123 23.8311 -2.07662
head 19.8062 10.419 2.06105
rclavicle 1.42131e-014 3.02153e-014
rhumerus -35.9762 4.71667 -94.0023
rradius 42.5789
rwrist -37.789
rhand -11.7038 -50.9953
rfingers 7.12502
rthumb 14.3424 -80.4798
lclavicle 1.42131e-014 3.02153e-014
lhumerus -27.6589 -19.5433 81.3471
lradius 41.9869
lwrist 74.2419
lhand -38.2262 -14.3564
lfingers 7.12502
lthumb -11.2574 15.3215
rfemur -50.5046 23.6742 -6.493
rtibia 73.9492
rfoot 4.4369 7.45984
rtoes -35.1512
lfemur -32.282 -6.69084 -36.7575
ltibia 38.2859
lfoot -16.7023 10.2693
ltoes 4.73649
238
root 3.08056 16.7361 -0.114409 15.2526 5.1363 11.0156
lowerback -6.93555 1.59751 -0.408717
upperback -1.83631 2.37911 -7.58513
thorax 2.30022 1.2174 -7.5107
lowerneck -2.34224 14.276 5.28495
upperneck 46.9947 23.864 -2.20899
head 19.7691 10.4238 2.00333
rclavicle 1.88845e-014 3.97569e-014
rhumerus -35.837 4.73002 -93.9969
rradius 42.5683
rwrist -38.0705
rhand -12.1518 -50.5115
rfingers 7.12502
rthumb 13.9107 -80.0263
lclavicle 1.88845e-014 3.97569e-014
lhumerus -27.5484 -19.5747 81.3008
lradius 41.9321
lwrist 74.3299
lhand -38.0809 -14.1053
lfingers 7.12502
lthumb -11.1172 15.5802
rfemur -50.5504 23.7393 -6.59629
rtibia 73.9461
rfoot 4.45721 7.47863
rtoes -35.7085
lfemur -32.2543 -6.65482 -36.8352
ltibia 38.2113
lfoot -16.6252 10.2616
ltoes 4.5728
239
root 3.07485 16.7348 -0.118147 15.2541 5.06902 11.0617
lowerback -6.89646 1.61316 -0.540086
upperback -1.82295 2.40822 -7.58699
thorax 2.29082 1.23137 -7.43411
lowerneck -2.45586 14.2683 5.21216
upperneck 46.945 23.8529 -2.21167
head 19.7487 10.4045 2.0177
rclavicle -1.90833e-014 3.18055e-015
rhumerus -35.7897 4.62069 -93.9406
rradius 42.5214
rwrist -38.0466
rhand -12.0394 -50.3867
rfingers 7.12502
rthumb 14.019 -79.894
lclavicle -1.90833e-014 3.18055e-015
lhumerus -27.5995 -19.6199 81.2867
lradius 42.0329
lwrist 74.3778
lhand -37.9146 -14.0914
lfingers 7.12502
lthumb -10.9569 15.6026
rfemur -50.6452 23.7842 -6.66564
rtibia 73.9716
rfoot 4.40596 7.53569
rtoes -36.2221
lfemur -32.2868 -6.59293 -36.8752
ltibia 38.1479
lfoot -16.5137 10.3053
ltoes 4.39048
240
root 3.07301 16.7347 -0.115395 15.2625 4.99939 11.1237
lowerback -6.90857 1.63805 -0.635152
upperback -1.82788 2.44936 -7.61347
thorax 2.29494 1.25171 -7.40347
lowerneck -2.53593 14.2499 5.15534
upperneck 46.934 23.8027 -2.155
head 19.731 10.3797 2.04726
rclavicle -1.98785e-016 9.54166e-015
rhumerus -35.8208 4.57606 -93.9601
rradius 42.5226
rwrist -38.2806
rhand -12.2867 -49.4666
rfingers 7.12502
rthumb 13.7807 -78.9902
lclavicle -1.98785e-016 9.54166e-015
lhumerus -27.6818 -19.7398 81.2773
lradius 42.1004
lwrist 74.3218
lhand -37.6874 -14.1635
lfingers 7.12502
lthumb -10.7377 15.5421
rfemur -50.6739 23.7738 -6.76015
rtibia 73.9544
rfoot 4.51133 7.53262
rtoes -35.6961
lfemur -32.2174 -6.57271 -36.9415
ltibia 37.9613
lfoot -16.4119 10.3273
ltoes 4.26009
241
root 3.06822 16.7304 -0.11325 15.3526 4.84378 11.2109
lowerback -6.98878 1.65998 -0.837706
upperback -1.89116 2.49277 -7.62556
thorax 2.27133 1.2711 -7.29366
lowerneck -2.44428 14.2602 5.17839
upperneck 46.8615 23.8217 -2.20688
head 19.6758 10.3948 2.0095
rclavicle 1.55052e-014 -2.94201e-014
rhumerus -35.8707 4.61221 -93.9734
rradius 42.5319
rwrist -38.4077
rhand -12.1915 -49.4351
rfingers 7.12502
rthumb 13.8724 -78.9524
lclavicle 1.55052e-014 -2.94201e-014
lhumerus -27.7159 -19.767 81.2635
lradius 42.032
lwrist 74.2571
lhand -37.3757 -14.2114
lfingers 7.12502
lthumb -10.4371 15.5095
rfemur -50.8871 23.7848 -6.96584
rtibia 73.9819
rfoot 4.62295 7.55047
rtoes -35.2738
lfemur -32.334 -6.52139 -37.033
ltibia 37.9837
lfoot -16.4563 10.3207
ltoes 4.40475
